# This file uses centimeters as units for non-parametric coordinates.

#mtllib tire.mtl
g default
v 0.045000 0.147821 -0.061205
v 0.045000 0.113137 -0.113093
v -0.045000 0.113137 -0.113093
v -0.045000 0.147821 -0.061205
v 0.045000 0.061229 -0.147763
v -0.045000 0.061229 -0.147763
v 0.045000 0.000000 -0.159938
v -0.045000 0.000000 -0.159938
v 0.045000 -0.061229 -0.147763
v -0.045000 -0.061229 -0.147763
v 0.045000 -0.113137 -0.113093
v -0.045000 -0.113137 -0.113093
v 0.045000 -0.147821 -0.061206
v -0.045000 -0.147821 -0.061206
v 0.045000 -0.160000 0.000000
v -0.045000 -0.160000 0.000000
v 0.045000 -0.147821 0.061206
v -0.045000 -0.147821 0.061206
v 0.045000 -0.113137 0.113093
v -0.045000 -0.113137 0.113093
v 0.045000 -0.061229 0.147763
v -0.045000 -0.061229 0.147763
v 0.045000 0.000000 0.159938
v -0.045000 0.000000 0.159938
v 0.045000 0.061229 0.147763
v -0.045000 0.061229 0.147763
v 0.045000 0.113137 0.113093
v -0.045000 0.113137 0.113093
v 0.045000 0.147821 0.061206
v -0.045000 0.147821 0.061206
v 0.045000 0.160000 0.000000
v -0.045000 0.160000 0.000000
v 0.048835 0.064934 -0.064909
v 0.048835 0.084841 -0.035129
v 0.059264 0.000000 0.000000
v 0.048835 0.035142 -0.084808
v 0.048835 0.000000 -0.091795
v 0.048835 -0.035142 -0.084808
v 0.048835 -0.064934 -0.064909
v 0.048835 -0.084841 -0.035129
v 0.048835 -0.091831 0.000000
v 0.048835 -0.084841 0.035129
v 0.048835 -0.064934 0.064909
v 0.048835 -0.035142 0.084808
v 0.048835 0.000000 0.091795
v 0.048835 0.035142 0.084808
v 0.048835 0.064934 0.064909
v 0.048835 0.084841 0.035129
v 0.048835 0.091831 0.000000
v 0.060970 0.116600 -0.048278
v 0.060970 0.089242 -0.089207
v 0.060970 0.048297 -0.116554
v 0.060970 0.000000 -0.126158
v 0.060970 -0.048297 -0.116554
v 0.060970 -0.089241 -0.089207
v 0.060970 -0.116600 -0.048278
v 0.060970 -0.126207 0.000000
v 0.060970 -0.116600 0.048278
v 0.060970 -0.089242 0.089207
v 0.060970 -0.048297 0.116554
v 0.060970 0.000000 0.126158
v 0.060970 0.048297 0.116554
v 0.060970 0.089242 0.089207
v 0.060970 0.116600 0.048278
v 0.060970 0.126207 0.000000
vt 0.021758 0.037747
vt 0.081853 0.037747
vt 0.021758 0.132001
vt 0.081853 0.132001
vt 0.141948 0.037747
vt 0.141948 0.132001
vt 0.202043 0.037747
vt 0.202043 0.132001
vt 0.262138 0.037747
vt 0.262138 0.132001
vt 0.322233 0.037747
vt 0.322233 0.132001
vt 0.382328 0.037747
vt 0.382328 0.132001
vt 0.442423 0.037747
vt 0.442423 0.132001
vt 0.502518 0.037747
vt 0.502518 0.132001
vt 0.562613 0.037747
vt 0.562613 0.132001
vt 0.622708 0.037747
vt 0.622708 0.132001
vt 0.682803 0.037747
vt 0.682803 0.132001
vt 0.742898 0.037747
vt 0.742898 0.132001
vt 0.802993 0.037747
vt 0.802993 0.132001
vt 0.863088 0.037747
vt 0.863088 0.132001
vt 0.923184 0.037747
vt 0.923184 0.132001
vt 0.983278 0.037747
vt 0.983278 0.132001
vt 0.586678 0.715549
vt 0.519246 0.760623
vt 0.439704 0.568518
vt 0.631735 0.648090
vt 0.647557 0.568518
vt 0.631735 0.488945
vt 0.586678 0.421487
vt 0.519246 0.376413
vt 0.439704 0.360585
vt 0.360163 0.376413
vt 0.292731 0.421487
vt 0.247674 0.488945
vt 0.231852 0.568518
vt 0.247674 0.648090
vt 0.292730 0.715549
vt 0.360163 0.760623
vt 0.439704 0.776451
vt 0.734168 0.865854
vt 0.598868 0.956294
vt 0.671883 0.803545
vt 0.565160 0.874883
vt 0.824572 0.730502
vt 0.743193 0.696781
vt 0.856318 0.570843
vt 0.768234 0.570843
vt 0.824572 0.411185
vt 0.743193 0.444906
vt 0.734168 0.275832
vt 0.671883 0.338141
vt 0.598869 0.185393
vt 0.565160 0.266803
vt 0.439272 0.153635
vt 0.439272 0.241753
vt 0.279675 0.185393
vt 0.313383 0.266803
vt 0.144375 0.275832
vt 0.206660 0.338141
vt 0.053971 0.411184
vt 0.135350 0.444906
vt 0.022225 0.570843
vt 0.110309 0.570843
vt 0.053971 0.730502
vt 0.135350 0.696780
vt 0.144375 0.865854
vt 0.206660 0.803545
vt 0.279675 0.956294
vt 0.313383 0.874883
vt 0.439272 0.988052
vt 0.439272 0.899934
vt 0.608525 0.740163
vt 0.530871 0.792070
vt 0.660413 0.662478
vt 0.678633 0.570843
vt 0.660413 0.479208
vt 0.608526 0.401524
vt 0.530871 0.349616
vt 0.439272 0.331389
vt 0.347672 0.349616
vt 0.270018 0.401523
vt 0.218131 0.479208
vt 0.199910 0.570843
vt 0.218130 0.662478
vt 0.270018 0.740163
vt 0.347672 0.792070
vt 0.439272 0.810297
vn 0.000000 0.923831 -0.382801
vn 0.000000 0.706980 -0.707233
vn 0.000000 0.923831 -0.382801
vn 0.000000 0.706980 -0.707233
vn 0.000000 0.706980 -0.707233
vn 0.000000 0.923831 -0.382801
vn 0.000000 0.706980 -0.707233
vn 0.000000 0.382567 -0.923928
vn 0.000000 0.706980 -0.707233
vn 0.000000 0.382567 -0.923928
vn 0.000000 0.382567 -0.923928
vn 0.000000 0.706980 -0.707233
vn 0.000000 0.382567 -0.923928
vn 0.000000 0.000000 -1.000000
vn 0.000000 0.382567 -0.923928
vn 0.000000 0.000000 -1.000000
vn 0.000000 0.000000 -1.000000
vn 0.000000 0.382567 -0.923928
vn 0.000000 0.000000 -1.000000
vn 0.000000 -0.382566 -0.923928
vn 0.000000 0.000000 -1.000000
vn 0.000000 -0.382566 -0.923928
vn 0.000000 -0.382566 -0.923928
vn 0.000000 0.000000 -1.000000
vn 0.000000 -0.382566 -0.923928
vn 0.000000 -0.706980 -0.707234
vn 0.000000 -0.382566 -0.923928
vn 0.000000 -0.706980 -0.707234
vn 0.000000 -0.706980 -0.707234
vn 0.000000 -0.382566 -0.923928
vn 0.000000 -0.706980 -0.707234
vn 0.000000 -0.923831 -0.382801
vn 0.000000 -0.706980 -0.707234
vn 0.000000 -0.923831 -0.382801
vn 0.000000 -0.923831 -0.382801
vn 0.000000 -0.706980 -0.707234
vn 0.000000 -0.923831 -0.382801
vn 0.000000 -1.000000 0.000000
vn 0.000000 -0.923831 -0.382801
vn 0.000000 -1.000000 0.000000
vn 0.000000 -1.000000 0.000000
vn 0.000000 -0.923831 -0.382801
vn 0.000000 -1.000000 0.000000
vn 0.000000 -0.923831 0.382800
vn 0.000000 -1.000000 0.000000
vn 0.000000 -0.923831 0.382800
vn 0.000000 -0.923831 0.382800
vn 0.000000 -1.000000 0.000000
vn 0.000000 -0.923831 0.382800
vn 0.000000 -0.706980 0.707233
vn 0.000000 -0.923831 0.382800
vn 0.000000 -0.706980 0.707233
vn 0.000000 -0.706980 0.707233
vn 0.000000 -0.923831 0.382800
vn 0.000000 -0.706980 0.707233
vn 0.000000 -0.382566 0.923928
vn 0.000000 -0.706980 0.707233
vn 0.000000 -0.382566 0.923928
vn 0.000000 -0.382566 0.923928
vn 0.000000 -0.706980 0.707233
vn 0.000000 -0.382566 0.923928
vn 0.000000 0.000000 1.000000
vn 0.000000 -0.382566 0.923928
vn 0.000000 0.000000 1.000000
vn 0.000000 0.000000 1.000000
vn 0.000000 -0.382566 0.923928
vn 0.000000 0.000000 1.000000
vn 0.000000 0.382566 0.923928
vn 0.000000 0.000000 1.000000
vn 0.000000 0.382566 0.923928
vn 0.000000 0.382566 0.923928
vn 0.000000 0.000000 1.000000
vn 0.000000 0.382566 0.923928
vn 0.000000 0.706980 0.707234
vn 0.000000 0.382566 0.923928
vn 0.000000 0.706980 0.707234
vn 0.000000 0.706980 0.707234
vn 0.000000 0.382566 0.923928
vn 0.000000 0.706980 0.707234
vn 0.000000 0.923831 0.382801
vn 0.000000 0.706980 0.707234
vn 0.000000 0.923831 0.382801
vn 0.000000 0.923831 0.382801
vn 0.000000 0.706980 0.707234
vn 0.000000 0.923831 0.382801
vn 0.000000 1.000000 0.000000
vn 0.000000 0.923831 0.382801
vn 0.000000 1.000000 0.000000
vn 0.000000 1.000000 0.000000
vn 0.000000 0.923831 0.382801
vn 0.000000 1.000000 0.000000
vn 0.000000 0.923831 -0.382801
vn 0.000000 1.000000 0.000000
vn 0.000000 0.923831 -0.382801
vn 0.000000 0.923831 -0.382801
vn 0.000000 1.000000 0.000000
vn 0.993611 0.079791 -0.079822
vn 0.993612 0.104252 -0.043199
vn 1.000000 0.000000 0.000000
vn 0.993609 0.043182 -0.104292
vn 0.993611 0.079791 -0.079822
vn 1.000000 0.000000 0.000000
vn 0.993608 0.000000 -0.112885
vn 0.993609 0.043182 -0.104292
vn 1.000000 0.000000 0.000000
vn 0.993609 -0.043182 -0.104292
vn 0.993608 0.000000 -0.112885
vn 1.000000 0.000000 0.000000
vn 0.993611 -0.079791 -0.079822
vn 0.993609 -0.043182 -0.104292
vn 1.000000 0.000000 0.000000
vn 0.993612 -0.104252 -0.043199
vn 0.993611 -0.079791 -0.079822
vn 1.000000 0.000000 0.000000
vn 0.993613 -0.112841 0.000000
vn 0.993612 -0.104252 -0.043199
vn 1.000000 0.000000 0.000000
vn 0.993612 -0.104252 0.043199
vn 0.993613 -0.112841 0.000000
vn 1.000000 0.000000 0.000000
vn 0.993611 -0.079791 0.079822
vn 0.993612 -0.104252 0.043199
vn 1.000000 0.000000 0.000000
vn 0.993609 -0.043182 0.104292
vn 0.993611 -0.079791 0.079822
vn 1.000000 0.000000 0.000000
vn 0.993608 0.000000 0.112885
vn 0.993609 -0.043182 0.104292
vn 1.000000 0.000000 0.000000
vn 0.993609 0.043182 0.104292
vn 0.993608 0.000000 0.112885
vn 1.000000 0.000000 0.000000
vn 0.993611 0.079791 0.079822
vn 0.993609 0.043182 0.104292
vn 1.000000 0.000000 0.000000
vn 0.993612 0.104252 0.043199
vn 0.993611 0.079791 0.079822
vn 1.000000 0.000000 0.000000
vn 0.993613 0.112841 0.000000
vn 0.993612 0.104252 0.043199
vn 1.000000 0.000000 0.000000
vn 0.993612 0.104252 -0.043199
vn 0.993613 0.112841 0.000000
vn 1.000000 0.000000 0.000000
vn 0.904093 0.302115 -0.302230
vn 0.904115 0.394741 -0.163570
vn 0.998711 0.035879 -0.035893
vn 0.904115 0.394741 -0.163570
vn 0.998712 0.046880 -0.019426
vn 0.998711 0.035879 -0.035893
vn 0.904070 0.163500 -0.394874
vn 0.904093 0.302115 -0.302230
vn 0.998711 0.019417 -0.046894
vn 0.904093 0.302115 -0.302230
vn 0.998711 0.035879 -0.035893
vn 0.998711 0.019417 -0.046894
vn 0.904061 0.000000 -0.427404
vn 0.904070 0.163500 -0.394874
vn 0.998711 0.000000 -0.050758
vn 0.904070 0.163500 -0.394874
vn 0.998711 0.019417 -0.046894
vn 0.998711 0.000000 -0.050758
vn 0.904070 -0.163499 -0.394874
vn 0.904061 0.000000 -0.427404
vn 0.998711 -0.019417 -0.046895
vn 0.904061 0.000000 -0.427404
vn 0.998711 0.000000 -0.050758
vn 0.998711 -0.019417 -0.046895
vn 0.904093 -0.302114 -0.302230
vn 0.904070 -0.163499 -0.394874
vn 0.998711 -0.035879 -0.035893
vn 0.904070 -0.163499 -0.394874
vn 0.998711 -0.019417 -0.046895
vn 0.998711 -0.035879 -0.035893
vn 0.904115 -0.394741 -0.163570
vn 0.904093 -0.302114 -0.302230
vn 0.998712 -0.046880 -0.019426
vn 0.904093 -0.302114 -0.302230
vn 0.998711 -0.035879 -0.035893
vn 0.998712 -0.046880 -0.019426
vn 0.904125 -0.427268 0.000000
vn 0.904115 -0.394741 -0.163570
vn 0.998712 -0.050743 0.000000
vn 0.904115 -0.394741 -0.163570
vn 0.998712 -0.046880 -0.019426
vn 0.998712 -0.050743 0.000000
vn 0.904115 -0.394741 0.163569
vn 0.904125 -0.427268 0.000000
vn 0.998712 -0.046880 0.019426
vn 0.904125 -0.427268 0.000000
vn 0.998712 -0.050743 0.000000
vn 0.998712 -0.046880 0.019426
vn 0.904093 -0.302115 0.302230
vn 0.904115 -0.394741 0.163569
vn 0.998711 -0.035879 0.035893
vn 0.904115 -0.394741 0.163569
vn 0.998712 -0.046880 0.019426
vn 0.998711 -0.035879 0.035893
vn 0.904070 -0.163499 0.394874
vn 0.904093 -0.302115 0.302230
vn 0.998711 -0.019417 0.046895
vn 0.904093 -0.302115 0.302230
vn 0.998711 -0.035879 0.035893
vn 0.998711 -0.019417 0.046895
vn 0.904061 0.000000 0.427404
vn 0.904070 -0.163499 0.394874
vn 0.998711 0.000000 0.050758
vn 0.904070 -0.163499 0.394874
vn 0.998711 -0.019417 0.046895
vn 0.998711 0.000000 0.050758
vn 0.904070 0.163499 0.394874
vn 0.904061 0.000000 0.427404
vn 0.998711 0.019417 0.046894
vn 0.904061 0.000000 0.427404
vn 0.998711 0.000000 0.050758
vn 0.998711 0.019417 0.046894
vn 0.904093 0.302114 0.302230
vn 0.904070 0.163499 0.394874
vn 0.998711 0.035879 0.035893
vn 0.904070 0.163499 0.394874
vn 0.998711 0.019417 0.046894
vn 0.998711 0.035879 0.035893
vn 0.904115 0.394741 0.163570
vn 0.904093 0.302114 0.302230
vn 0.998712 0.046880 0.019426
vn 0.904093 0.302114 0.302230
vn 0.998711 0.035879 0.035893
vn 0.998712 0.046880 0.019426
vn 0.904125 0.427268 0.000000
vn 0.904115 0.394741 0.163570
vn 0.998712 0.050743 0.000000
vn 0.904115 0.394741 0.163570
vn 0.998712 0.046880 0.019426
vn 0.998712 0.050743 0.000000
vn 0.904115 0.394741 -0.163570
vn 0.904125 0.427268 0.000000
vn 0.998712 0.046880 -0.019426
vn 0.904125 0.427268 0.000000
vn 0.998712 0.050743 0.000000
vn 0.998712 0.046880 -0.019426
vn 0.998711 0.035879 -0.035893
vn 0.998712 0.046880 -0.019426
vn 0.942948 -0.235378 0.235469
vn 0.998712 0.046880 -0.019426
vn 0.942963 -0.307541 0.127437
vn 0.942948 -0.235378 0.235469
vn 0.998711 0.019417 -0.046894
vn 0.998711 0.035879 -0.035893
vn 0.942934 -0.127384 0.307651
vn 0.998711 0.035879 -0.035893
vn 0.942948 -0.235378 0.235469
vn 0.942934 -0.127384 0.307651
vn 0.998711 0.000000 -0.050758
vn 0.998711 0.019417 -0.046894
vn 0.942928 0.000000 0.332997
vn 0.998711 0.019417 -0.046894
vn 0.942934 -0.127384 0.307651
vn 0.942928 0.000000 0.332997
vn 0.998711 -0.019417 -0.046895
vn 0.998711 0.000000 -0.050758
vn 0.942934 0.127384 0.307651
vn 0.998711 0.000000 -0.050758
vn 0.942928 0.000000 0.332997
vn 0.942934 0.127384 0.307651
vn 0.998711 -0.035879 -0.035893
vn 0.998711 -0.019417 -0.046895
vn 0.942948 0.235378 0.235469
vn 0.998711 -0.019417 -0.046895
vn 0.942934 0.127384 0.307651
vn 0.942948 0.235378 0.235469
vn 0.998712 -0.046880 -0.019426
vn 0.998711 -0.035879 -0.035893
vn 0.942963 0.307541 0.127437
vn 0.998711 -0.035879 -0.035893
vn 0.942948 0.235378 0.235469
vn 0.942963 0.307541 0.127437
vn 0.998712 -0.050743 0.000000
vn 0.998712 -0.046880 -0.019426
vn 0.942969 0.332882 0.000000
vn 0.998712 -0.046880 -0.019426
vn 0.942963 0.307541 0.127437
vn 0.942969 0.332882 0.000000
vn 0.998712 -0.046880 0.019426
vn 0.998712 -0.050743 0.000000
vn 0.942963 0.307541 -0.127436
vn 0.998712 -0.050743 0.000000
vn 0.942969 0.332882 0.000000
vn 0.942963 0.307541 -0.127436
vn 0.998711 -0.035879 0.035893
vn 0.998712 -0.046880 0.019426
vn 0.942948 0.235378 -0.235469
vn 0.998712 -0.046880 0.019426
vn 0.942963 0.307541 -0.127436
vn 0.942948 0.235378 -0.235469
vn 0.998711 -0.019417 0.046895
vn 0.998711 -0.035879 0.035893
vn 0.942934 0.127384 -0.307650
vn 0.998711 -0.035879 0.035893
vn 0.942948 0.235378 -0.235469
vn 0.942934 0.127384 -0.307650
vn 0.998711 0.000000 0.050758
vn 0.998711 -0.019417 0.046895
vn 0.942928 0.000000 -0.332997
vn 0.998711 -0.019417 0.046895
vn 0.942934 0.127384 -0.307650
vn 0.942928 0.000000 -0.332997
vn 0.998711 0.019417 0.046894
vn 0.998711 0.000000 0.050758
vn 0.942934 -0.127384 -0.307651
vn 0.998711 0.000000 0.050758
vn 0.942928 0.000000 -0.332997
vn 0.942934 -0.127384 -0.307651
vn 0.998711 0.035879 0.035893
vn 0.998711 0.019417 0.046894
vn 0.942948 -0.235378 -0.235469
vn 0.998711 0.019417 0.046894
vn 0.942934 -0.127384 -0.307651
vn 0.942948 -0.235378 -0.235469
vn 0.998712 0.046880 0.019426
vn 0.998711 0.035879 0.035893
vn 0.942963 -0.307541 -0.127437
vn 0.998711 0.035879 0.035893
vn 0.942948 -0.235378 -0.235469
vn 0.942963 -0.307541 -0.127437
vn 0.998712 0.050743 0.000000
vn 0.998712 0.046880 0.019426
vn 0.942969 -0.332882 0.000000
vn 0.998712 0.046880 0.019426
vn 0.942963 -0.307541 -0.127437
vn 0.942969 -0.332882 0.000000
vn 0.998712 0.046880 -0.019426
vn 0.998712 0.050743 0.000000
vn 0.942963 -0.307541 0.127437
vn 0.998712 0.050743 0.000000
vn 0.942969 -0.332882 0.000000
vn 0.942963 -0.307541 0.127437
s off
g tire:pCylinder5
usemtl tire:blinn1SG
f 1/1/1 2/2/2 4/3/3
f 2/2/4 3/4/5 4/3/6
f 2/2/7 5/5/8 3/4/9
f 5/5/10 6/6/11 3/4/12
f 5/5/13 7/7/14 6/6/15
f 7/7/16 8/8/17 6/6/18
f 7/7/19 9/9/20 8/8/21
f 9/9/22 10/10/23 8/8/24
f 9/9/25 11/11/26 10/10/27
f 11/11/28 12/12/29 10/10/30
f 11/11/31 13/13/32 12/12/33
f 13/13/34 14/14/35 12/12/36
f 13/13/37 15/15/38 14/14/39
f 15/15/40 16/16/41 14/14/42
f 15/15/43 17/17/44 16/16/45
f 17/17/46 18/18/47 16/16/48
f 17/17/49 19/19/50 18/18/51
f 19/19/52 20/20/53 18/18/54
f 19/19/55 21/21/56 20/20/57
f 21/21/58 22/22/59 20/20/60
f 21/21/61 23/23/62 22/22/63
f 23/23/64 24/24/65 22/22/66
f 23/23/67 25/25/68 24/24/69
f 25/25/70 26/26/71 24/24/72
f 25/25/73 27/27/74 26/26/75
f 27/27/76 28/28/77 26/26/78
f 27/27/79 29/29/80 28/28/81
f 29/29/82 30/30/83 28/28/84
f 29/29/85 31/31/86 30/30/87
f 31/31/88 32/32/89 30/30/90
f 31/31/91 1/33/92 32/32/93
f 1/33/94 4/34/95 32/32/96
f 33/35/97 34/36/98 35/37/99
f 36/38/100 33/35/101 35/37/102
f 37/39/103 36/38/104 35/37/105
f 38/40/106 37/39/107 35/37/108
f 39/41/109 38/40/110 35/37/111
f 40/42/112 39/41/113 35/37/114
f 41/43/115 40/42/116 35/37/117
f 42/44/118 41/43/119 35/37/120
f 43/45/121 42/44/122 35/37/123
f 44/46/124 43/45/125 35/37/126
f 45/47/127 44/46/128 35/37/129
f 46/48/130 45/47/131 35/37/132
f 47/49/133 46/48/134 35/37/135
f 48/50/136 47/49/137 35/37/138
f 49/51/139 48/50/140 35/37/141
f 34/36/142 49/51/143 35/37/144
f 2/52/145 1/53/146 51/54/147
f 1/53/148 50/55/149 51/54/150
f 5/56/151 2/52/152 52/57/153
f 2/52/154 51/54/155 52/57/156
f 7/58/157 5/56/158 53/59/159
f 5/56/160 52/57/161 53/59/162
f 9/60/163 7/58/164 54/61/165
f 7/58/166 53/59/167 54/61/168
f 11/62/169 9/60/170 55/63/171
f 9/60/172 54/61/173 55/63/174
f 13/64/175 11/62/176 56/65/177
f 11/62/178 55/63/179 56/65/180
f 15/66/181 13/64/182 57/67/183
f 13/64/184 56/65/185 57/67/186
f 17/68/187 15/66/188 58/69/189
f 15/66/190 57/67/191 58/69/192
f 19/70/193 17/68/194 59/71/195
f 17/68/196 58/69/197 59/71/198
f 21/72/199 19/70/200 60/73/201
f 19/70/202 59/71/203 60/73/204
f 23/74/205 21/72/206 61/75/207
f 21/72/208 60/73/209 61/75/210
f 25/76/211 23/74/212 62/77/213
f 23/74/214 61/75/215 62/77/216
f 27/78/217 25/76/218 63/79/219
f 25/76/220 62/77/221 63/79/222
f 29/80/223 27/78/224 64/81/225
f 27/78/226 63/79/227 64/81/228
f 31/82/229 29/80/230 65/83/231
f 29/80/232 64/81/233 65/83/234
f 1/53/235 31/82/236 50/55/237
f 31/82/238 65/83/239 50/55/240
f 51/54/241 50/55/242 33/84/243
f 50/55/244 34/85/245 33/84/246
f 52/57/247 51/54/248 36/86/249
f 51/54/250 33/84/251 36/86/252
f 53/59/253 52/57/254 37/87/255
f 52/57/256 36/86/257 37/87/258
f 54/61/259 53/59/260 38/88/261
f 53/59/262 37/87/263 38/88/264
f 55/63/265 54/61/266 39/89/267
f 54/61/268 38/88/269 39/89/270
f 56/65/271 55/63/272 40/90/273
f 55/63/274 39/89/275 40/90/276
f 57/67/277 56/65/278 41/91/279
f 56/65/280 40/90/281 41/91/282
f 58/69/283 57/67/284 42/92/285
f 57/67/286 41/91/287 42/92/288
f 59/71/289 58/69/290 43/93/291
f 58/69/292 42/92/293 43/93/294
f 60/73/295 59/71/296 44/94/297
f 59/71/298 43/93/299 44/94/300
f 61/75/301 60/73/302 45/95/303
f 60/73/304 44/94/305 45/95/306
f 62/77/307 61/75/308 46/96/309
f 61/75/310 45/95/311 46/96/312
f 63/79/313 62/77/314 47/97/315
f 62/77/316 46/96/317 47/97/318
f 64/81/319 63/79/320 48/98/321
f 63/79/322 47/97/323 48/98/324
f 65/83/325 64/81/326 49/99/327
f 64/81/328 48/98/329 49/99/330
f 50/55/331 65/83/332 34/85/333
f 65/83/334 49/99/335 34/85/336
